<svg width="21" height="19" viewBox="0 0 21 19" fill="none" xmlns="http://www.w3.org/2000/svg">
<path fill-rule="evenodd" clip-rule="evenodd" d="M0.702857 13.7974L7.63503 1.79058C8.15287 0.893778 9.12119 0.289795 10.2312 0.289795C11.3412 0.289795 12.3095 0.893778 12.8274 1.79058L19.7595 13.7974C20.0137 14.2378 20.1599 14.7482 20.1599 15.2932C20.1599 16.9481 18.8183 18.2898 17.1633 18.2898H10.2312H3.2991C1.64411 18.2898 0.30249 16.9481 0.30249 15.2932C0.30249 14.7482 0.448667 14.2378 0.702857 13.7974Z" fill="#3B4145"/>
<path fill-rule="evenodd" clip-rule="evenodd" d="M16.2113 17.0905H3.29917C2.30789 17.0905 1.50122 16.2838 1.50122 15.2925C1.50122 14.9777 1.58433 14.6676 1.74094 14.3959L8.67304 2.38919C8.99429 1.83303 9.59121 1.48743 10.2313 1.48743C10.2484 1.48743 10.2656 1.48781 10.2828 1.48863C10.303 1.48942 10.323 1.49066 10.3431 1.49236C10.9403 1.52959 11.4872 1.86638 11.7895 2.39019L18.7216 14.3969C18.8782 14.6686 18.9613 14.9787 18.9613 15.2935C18.9613 16.2848 18.1547 17.0915 17.1634 17.0915H16.2117L16.2113 17.0905Z" fill="#FFD764"/>
<path fill-rule="evenodd" clip-rule="evenodd" d="M10.2313 13.096V13.0959C10.7831 13.0959 11.2302 13.543 11.2302 14.0948C11.2302 14.6458 10.7843 15.0924 10.2336 15.0937C10.2329 15.0937 10.2321 15.0937 10.2313 15.0937C9.67952 15.0937 9.23242 14.6466 9.23242 14.0949C9.23242 13.5431 9.67952 13.096 10.2313 13.096Z" fill="#3B4145"/>
<path fill-rule="evenodd" clip-rule="evenodd" d="M10.2313 4.50617V4.50586C10.7831 4.50586 11.2302 4.95296 11.2302 5.50474V10.8986C11.2302 11.4483 10.7858 11.8947 10.2364 11.8975C10.2347 11.8977 10.233 11.8978 10.2313 11.8978C9.67952 11.8978 9.23242 11.4503 9.23242 10.8989V5.50505C9.23242 4.95327 9.67952 4.50617 10.2313 4.50617Z" fill="#3B4145"/>
</svg>
