<svg width="10" height="14" viewBox="0 0 10 14" fill="none" xmlns="http://www.w3.org/2000/svg">
<path d="M4.96753 14C2.55487 14 0.592529 12.0377 0.592529 9.625V3.5C0.592529 3.17743 0.853897 2.9167 1.17583 2.9167C1.49786 2.9167 1.75923 3.17743 1.75923 3.5V9.625C1.75923 11.3937 3.1983 12.8333 4.96753 12.8333C6.73676 12.8333 8.17583 11.3937 8.17583 9.625V3.2083C8.17583 2.0825 7.26003 1.1667 6.13423 1.1667C5.00833 1.1667 4.09253 2.0825 4.09253 3.2083V9.0417C4.09253 9.52406 4.48506 9.9167 4.96753 9.9167C5.45 9.9167 5.84253 9.52406 5.84253 9.0417V3.5C5.84253 3.17743 6.1039 2.9167 6.42583 2.9167C6.74786 2.9167 7.00923 3.17743 7.00923 3.5V9.0417C7.00923 10.1675 6.09332 11.0833 4.96753 11.0833C3.84174 11.0833 2.92583 10.1675 2.92583 9.0417V3.2083C2.92583 1.43971 4.3649 0 6.13423 0C7.90346 0 9.34253 1.43971 9.34253 3.2083V9.625C9.34253 12.0377 7.38019 14 4.96753 14Z" fill="white"/>
</svg>
