<svg width="24" height="25" viewBox="0 0 24 25" fill="none" xmlns="http://www.w3.org/2000/svg">
<path d="M20 17.1089H22V19.1089H2V17.1089H4V10.1089C4 7.98715 4.84285 5.95232 6.34315 4.45203C7.84344 2.95174 9.87827 2.10889 12 2.10889C14.1217 2.10889 16.1566 2.95174 17.6569 4.45203C19.1571 5.95232 20 7.98715 20 10.1089V17.1089ZM18 17.1089V10.1089C18 8.51759 17.3679 6.99146 16.2426 5.86625C15.1174 4.74103 13.5913 4.10889 12 4.10889C10.4087 4.10889 8.88258 4.74103 7.75736 5.86625C6.63214 6.99146 6 8.51759 6 10.1089V17.1089H18ZM9 21.1089H15V23.1089H9V21.1089Z" fill="#3A4C65"/>
</svg>
