<svg width="19" height="17" viewBox="0 0 19 17" fill="none" xmlns="http://www.w3.org/2000/svg">
<path fill-rule="evenodd" clip-rule="evenodd" d="M14.4202 2.88045H15.9994C17.26 2.88045 18.2851 3.90556 18.2852 5.16613V14.309C18.2852 15.5696 17.26 16.5947 15.9994 16.5947H2.28572C1.02511 16.5947 0 15.5691 0 14.3084L0.00613928 5.16897C0.00722488 3.91117 1.03069 2.88662 2.28793 2.88438L3.86494 2.88157L5.00725 0.594727H13.2768L14.4202 2.88045ZM4.57084 9.16613C4.57084 11.6868 6.62162 13.7376 9.14228 13.7376C11.6629 13.7376 13.7137 11.6868 13.7137 9.16613C13.7137 6.64547 11.6629 4.59469 9.14228 4.59469C6.62162 4.59469 4.57084 6.64547 4.57084 9.16613ZM10.7586 10.7824C11.6512 9.88975 11.6512 8.44253 10.7586 7.5499C9.86593 6.65727 8.41871 6.65727 7.52608 7.5499C6.63345 8.44253 6.63345 9.88975 7.52608 10.7824C8.41871 11.675 9.86593 11.675 10.7586 10.7824Z" fill="white"/>
</svg>
