<svg width="13" height="13" viewBox="0 0 13 13" fill="none" xmlns="http://www.w3.org/2000/svg">
<path d="M4.47166 6.29018L0.759294 2.57782C0.349116 2.16764 0.349116 1.50264 0.759294 1.0931L1.2542 0.598197C1.6645 0.187891 2.3295 0.187891 2.73904 0.598197L6.45128 4.31043L10.1636 0.597428C10.5738 0.187251 11.2388 0.187251 11.6484 0.597428L12.144 1.09233C12.5542 1.50264 12.5542 2.16764 12.144 2.57718L8.43102 6.29018L12.1433 10.0024C12.5536 10.4127 12.5536 11.0777 12.1433 11.4873L11.6484 11.9822C11.2382 12.3923 10.5732 12.3923 10.1636 11.9822L6.45128 8.2698L2.73904 11.9822C2.32874 12.3923 1.66374 12.3923 1.2542 11.9822L0.759294 11.4873C0.349116 11.077 0.349116 10.412 0.759294 10.0024L4.47166 6.29018Z" fill="#32404E"/>
</svg>
