<svg width="14" height="19" viewBox="0 0 14 19" fill="none" xmlns="http://www.w3.org/2000/svg">
<path d="M3.14905 18.523C2.87448 18.4464 2.58479 18.4035 2.3285 18.2868C1.16553 17.7577 0.521468 16.8496 0.510921 15.564C0.490882 13.0451 0.50389 10.5258 0.505648 8.00552C0.505648 7.46835 0.870921 7.08129 1.37295 7.07461C1.87498 7.06793 2.26241 7.46905 2.26276 8.00728C2.26463 10.4972 2.26405 12.9871 2.261 15.4768C2.261 15.9623 2.43432 16.3539 2.86252 16.588C3.05137 16.6924 3.26243 16.7502 3.47811 16.7564C5.69858 16.7684 7.91905 16.7663 10.1395 16.7624C10.8472 16.7624 11.3499 16.2312 11.3513 15.4915C11.3546 13.7806 11.3546 12.0697 11.3513 10.3588C11.3513 9.57381 11.3468 8.78879 11.3513 8.00341C11.3549 7.52952 11.6358 7.1741 12.0503 7.09464C12.6036 6.98918 13.0898 7.36921 13.1049 7.93838C13.1176 8.4418 13.1099 8.94593 13.1099 9.45006C13.1099 11.4656 13.1092 13.4812 13.1078 15.4968C13.1042 16.9287 12.2039 18.0983 10.8518 18.4372C10.7224 18.4699 10.5909 18.4949 10.4605 18.5234L3.14905 18.523Z" fill="#32404E"/>
<path d="M7.15663 0.523315C7.48429 0.605579 7.82706 0.650578 8.13679 0.776787C9.48257 1.32451 10.2697 2.32925 10.4923 3.76501C10.5098 3.8775 10.5453 3.91125 10.6554 3.9102C11.1764 3.90598 11.6978 3.90317 12.2191 3.9102C12.5992 3.91547 12.8843 4.09055 13.0351 4.44351C13.1757 4.77291 13.1265 5.08756 12.8945 5.36282C12.7187 5.57376 12.4853 5.66657 12.2117 5.66586C11.8602 5.66586 11.5086 5.66586 11.1571 5.66586C7.92269 5.66586 4.69183 5.65954 1.45886 5.67184C0.808469 5.6743 0.355305 5.10935 0.544797 4.51171C0.666789 4.14433 0.995852 3.91547 1.42265 3.91125C1.92046 3.90633 2.41827 3.90492 2.91609 3.91125C3.05038 3.91125 3.10277 3.88489 3.1221 3.73548C3.33585 2.08738 4.68585 0.757451 6.33573 0.554604C6.37569 0.547027 6.41506 0.53657 6.45351 0.523315L7.15663 0.523315ZM4.88308 3.89825H8.73023C8.62265 3.02533 7.78417 2.30324 6.86695 2.28109C5.89417 2.2607 5.04515 2.94518 4.88308 3.89825Z" fill="#32404E"/>
<path d="M6.87882 13.1169C6.60988 13.3925 6.35148 13.665 6.0857 13.9255C5.83292 14.1715 5.52531 14.2366 5.19273 14.1272C4.86015 14.0179 4.66187 13.7711 4.60527 13.4241C4.55781 13.133 4.65238 12.8806 4.85839 12.6718C5.11679 12.4099 5.37765 12.1508 5.65081 11.8769C5.37765 11.6052 5.1073 11.3471 4.84925 11.0772C4.37781 10.585 4.58417 9.79785 5.23316 9.61609C5.56398 9.52328 5.85929 9.60554 6.10468 9.84847C6.36203 10.1037 6.61656 10.3617 6.88832 10.6349C7.14812 10.3744 7.39984 10.1241 7.6491 9.87167C7.81574 9.70292 8.00874 9.59465 8.25027 9.58094C8.4236 9.56826 8.59677 9.60771 8.74751 9.69423C8.89824 9.78074 9.01965 9.91037 9.09613 10.0664C9.26066 10.399 9.21531 10.7717 8.95972 11.0448C8.73578 11.2842 8.49812 11.511 8.26714 11.7434C8.22671 11.7841 8.18804 11.827 8.13531 11.884C8.40214 12.148 8.66546 12.4046 8.92386 12.6658C9.14429 12.8887 9.24027 13.158 9.17488 13.4677C9.10456 13.8049 8.90206 14.0362 8.57089 14.1357C8.24992 14.2313 7.95355 14.1673 7.70816 13.9339C7.47472 13.7121 7.25113 13.4797 7.02296 13.2526C6.98324 13.2121 6.94035 13.1742 6.87882 13.1169Z" fill="#32404E"/>
</svg>
