<svg width="13" height="15" viewBox="0 0 13 15" fill="none" xmlns="http://www.w3.org/2000/svg">
<path fill-rule="evenodd" clip-rule="evenodd" d="M10.0389 6.47218L10.6993 7.22387C10.8828 7.43134 10.8617 7.74905 10.6532 7.93146L6.69134 11.4003C6.50191 11.5656 6.22028 11.5656 6.03085 11.4003L2.06794 7.93146C1.85947 7.74905 1.83843 7.43134 2.02184 7.22287L2.68232 6.47218C2.86574 6.26471 3.18145 6.24467 3.38891 6.42608L5.35834 8.15196V1.00088C5.35834 0.724261 5.58284 0.499756 5.85947 0.499756H6.86172C7.13834 0.499756 7.36284 0.724261 7.36284 1.00088V8.15196L9.33227 6.42608C9.54074 6.24467 9.85645 6.26471 10.0389 6.47218ZM0.84805 12.4954H11.8728C12.1495 12.4954 12.374 12.7199 12.374 12.9965V13.9988C12.374 14.2754 12.1495 14.4999 11.8728 14.4999H0.84805C0.571428 14.4999 0.346924 14.2754 0.346924 13.9988V12.9965C0.346924 12.7199 0.571428 12.4954 0.84805 12.4954Z" fill="white"/>
</svg>
