<svg width="12" height="8" viewBox="0 0 12 8" fill="none" xmlns="http://www.w3.org/2000/svg">
<path d="M11.8106 1.08505L11.4224 0.69415C11.3002 0.572072 11.1377 0.504818 10.964 0.504818C10.7903 0.504818 10.6276 0.572072 10.5054 0.69415L6.07708 5.1227L1.64361 0.689236C1.52163 0.567158 1.35889 0.5 1.18527 0.5C1.01164 0.5 0.848804 0.567158 0.726725 0.689236L0.338425 1.07773C0.0855966 1.33036 0.0855966 1.74189 0.338425 1.99452L5.61699 7.29207C5.73898 7.41405 5.90152 7.5 6.07669 7.5H6.07871C6.25244 7.5 6.41498 7.41396 6.53697 7.29207L11.8106 2.00888C11.9328 1.8869 11.9999 1.71944 12 1.54581C12 1.37209 11.9328 1.20694 11.8106 1.08505Z" fill="#32404E"/>
</svg>
