<svg width="19" height="18" viewBox="0 0 19 18" fill="none" xmlns="http://www.w3.org/2000/svg">
<path fill-rule="evenodd" clip-rule="evenodd" d="M0.71167 16.4033C0.78959 16.2003 0.901135 16.1395 1.05083 16.1405C2.35833 16.1488 3.66616 16.1452 4.97366 16.1452C5.23458 16.1452 5.3028 16.257 5.30313 16.6827C5.30313 16.8971 5.30474 17.1115 5.30313 17.3259C5.30022 17.6186 5.21195 17.766 5.0296 17.7866C4.99209 17.7907 4.95427 17.7866 4.91676 17.7866C3.64676 17.7866 2.37676 17.7866 1.10677 17.7897C0.947693 17.7928 0.808666 17.7546 0.71167 17.5372V16.4033Z" fill="#32404E"/>
<path d="M6.01892 13.4293C6.05416 13.3349 6.08714 13.1858 6.15956 13.0594C7.29917 11.0758 8.44155 9.09453 9.58675 7.11534C10.1817 6.08542 12.5408 2.18132 13.1367 1.1525C13.1953 1.04446 13.2758 0.949837 13.3731 0.874704C13.5406 0.756665 13.7313 0.767984 13.9078 0.869853C15.1796 1.6029 16.9205 2.61862 18.1923 3.35577C18.4635 3.51326 18.5266 3.80852 18.3604 4.09958C17.9487 4.81794 15.6708 8.57913 15.2552 9.29558C13.9238 11.6025 12.5924 13.9099 11.261 16.2179C11.1561 16.4071 10.9874 16.5529 10.785 16.6292C9.65083 17.0791 8.28895 17.2682 7.15927 17.7297C6.93294 17.8222 6.74736 17.7743 6.70824 17.4778C6.57438 16.4591 6.28049 15.2543 6.13435 14.2369L6.01892 13.4293ZM12.3353 5.41218C12.2386 5.41906 12.1452 5.45041 12.0639 5.50331C11.9826 5.5562 11.9161 5.62889 11.8707 5.71455C11.6812 6.03989 11.4943 6.36684 11.3062 6.69315C10.2118 8.58971 9.11715 10.4861 8.02221 12.3823C7.83727 12.7028 7.90905 12.9803 8.22428 13.164C8.73083 13.4591 9.51394 13.9574 10.0233 14.2482C10.3078 14.4099 10.5965 14.3343 10.7585 14.0542C12.0482 11.8235 13.3365 9.59209 14.6235 7.3599C14.7955 7.0614 14.7169 6.7794 14.4166 6.6038C13.9104 6.30776 13.1273 5.80963 12.6175 5.51987C12.5312 5.46942 12.4297 5.44743 12.3353 5.41218Z" fill="#32404E"/>
</svg>
