<svg width="22" height="18" viewBox="0 0 22 18" fill="none" xmlns="http://www.w3.org/2000/svg">
<path d="M2.93268 2.25H19.0288C19.266 2.25 19.4935 2.32902 19.6612 2.46967C19.8289 2.61032 19.9231 2.80109 19.9231 3V15C19.9231 15.1989 19.8289 15.3897 19.6612 15.5303C19.4935 15.671 19.266 15.75 19.0288 15.75H2.93268C2.69552 15.75 2.46807 15.671 2.30037 15.5303C2.13267 15.3897 2.03845 15.1989 2.03845 15V3C2.03845 2.80109 2.13267 2.61032 2.30037 2.46967C2.46807 2.32902 2.69552 2.25 2.93268 2.25ZM18.1346 5.4285L11.0451 10.7535L3.82691 5.412V14.25H18.1346V5.4285ZM4.28387 3.75L11.0353 8.7465L17.6893 3.75H4.28387Z" fill="#3A4C65"/>
</svg>
