<svg width="22" height="22" viewBox="0 0 22 22" fill="none" xmlns="http://www.w3.org/2000/svg">
<path d="M20.4037 0.869629H1.96619C1.5347 0.869629 1.18494 1.21939 1.18494 1.65088V5.40087C1.18494 5.62915 1.28736 5.84134 1.44439 5.98231L7.27868 11.2182V20.0883C7.27868 20.3369 7.39692 20.5706 7.59715 20.7178C7.79555 20.8637 8.05352 20.9088 8.29297 20.834L14.543 18.8809C14.8691 18.779 15.0912 18.4769 15.0912 18.1352V11.2182L20.9254 5.98228C21.0906 5.83411 21.1849 5.62275 21.1849 5.40087V1.65088C21.1849 1.21939 20.8351 0.869629 20.4037 0.869629ZM19.6224 5.05228L13.7881 10.2882C13.623 10.4364 13.5287 10.6477 13.5287 10.8696V17.5608L8.84117 19.0257V10.8696C8.84117 10.6477 8.74684 10.4364 8.58172 10.2882L4.00642 6.18212H13.763C14.1945 6.18212 14.5443 5.83235 14.5443 5.40087C14.5443 4.96939 14.1945 4.61962 13.763 4.61962H2.74743V2.43213H19.6224V5.05228Z" fill="#32404E" stroke="#32404E" stroke-width="0.5"/>
</svg>
