<svg width="32" height="15" viewBox="0 0 32 15" fill="none" xmlns="http://www.w3.org/2000/svg">
<path d="M31.5726 8.01927L25.0101 14.5818C24.8392 14.7527 24.5624 14.7527 24.3915 14.5818C24.2206 14.4109 24.2206 14.134 24.3915 13.9631L30.2072 8.14745H1.13832C0.896491 8.14745 0.700806 7.95176 0.700806 7.70993C0.700806 7.46811 0.896491 7.27242 1.13832 7.27242H30.2072L24.3915 1.45677C24.2206 1.28586 24.2206 1.00901 24.3915 0.838135C24.4769 0.752699 24.5889 0.70996 24.7008 0.70996C24.8128 0.70996 24.9247 0.752699 25.0102 0.838135L31.5727 7.40064C31.7435 7.57151 31.7435 7.84836 31.5726 8.01927Z" fill="#43BBB4"/>
</svg>
