<svg width="26" height="12" viewBox="0 0 26 12" fill="none" xmlns="http://www.w3.org/2000/svg">
<path d="M24.9848 6.11022L19.8286 11.2665C19.6943 11.4008 19.4768 11.4008 19.3425 11.2665C19.2082 11.1322 19.2082 10.9147 19.3425 10.7804L23.912 6.21093H1.07215C0.882146 6.21093 0.728394 6.05717 0.728394 5.86717C0.728394 5.67716 0.882146 5.52341 1.07215 5.52341H23.912L19.3425 0.953968C19.2082 0.81968 19.2082 0.602153 19.3425 0.467896C19.4096 0.400768 19.4976 0.367188 19.5856 0.367188C19.6735 0.367188 19.7615 0.400768 19.8286 0.467896L24.9849 5.62415C25.1191 5.7584 25.1191 5.97593 24.9848 6.11022Z" fill="white"/>
</svg>
