<svg width="24" height="25" viewBox="0 0 24 25" fill="none" xmlns="http://www.w3.org/2000/svg">
<g clip-path="url(#clip0_338_1623)">
<path d="M5.4444 7.78487V6.69227C5.4444 4.95363 6.13508 3.2862 7.36448 2.0568C8.59389 0.827391 10.2613 0.136719 12 0.136719C13.7386 0.136719 15.406 0.827391 16.6354 2.0568C17.8648 3.2862 18.5555 4.95363 18.5555 6.69227V7.78487H20.7407C21.0305 7.78487 21.3084 7.89998 21.5133 8.10488C21.7182 8.30978 21.8333 8.58769 21.8333 8.87746V21.9886C21.8333 22.2783 21.7182 22.5562 21.5133 22.7612C21.3084 22.9661 21.0305 23.0812 20.7407 23.0812H3.25922C2.96944 23.0812 2.69154 22.9661 2.48664 22.7612C2.28174 22.5562 2.16663 22.2783 2.16663 21.9886V8.87746C2.16663 8.58769 2.28174 8.30978 2.48664 8.10488C2.69154 7.89998 2.96944 7.78487 3.25922 7.78487H5.4444ZM19.6481 9.97005H4.35181V20.896H19.6481V9.97005ZM10.9074 16.2328C10.4908 15.9923 10.1652 15.621 9.98111 15.1766C9.79703 14.7322 9.76473 14.2394 9.88923 13.7748C10.0137 13.3102 10.2881 12.8996 10.6697 12.6067C11.0513 12.3139 11.5189 12.1552 12 12.1552C12.481 12.1552 12.9486 12.3139 13.3302 12.6067C13.7118 12.8996 13.9862 13.3102 14.1107 13.7748C14.2352 14.2394 14.2029 14.7322 14.0188 15.1766C13.8347 15.621 13.5091 15.9923 13.0926 16.2328V18.7108H10.9074V16.2328ZM7.62959 7.78487H16.3703V6.69227C16.3703 5.53318 15.9099 4.42156 15.0903 3.60196C14.2707 2.78235 13.1591 2.3219 12 2.3219C10.8409 2.3219 9.72924 2.78235 8.90964 3.60196C8.09004 4.42156 7.62959 5.53318 7.62959 6.69227V7.78487Z" fill="#3A4C65"/>
</g>
<defs>
<clipPath id="clip0_338_1623">
<rect width="24" height="24" fill="white" transform="translate(0 0.108887)"/>
</clipPath>
</defs>
</svg>
