<svg width="19" height="18" viewBox="0 0 19 18" fill="none" xmlns="http://www.w3.org/2000/svg">
<path d="M4.33333 5.75686V4.93742C4.33333 3.63344 4.85134 2.38286 5.77339 1.46081C6.69545 0.538756 7.94602 0.020752 9.25 0.020752C10.554 0.020752 11.8046 0.538756 12.7266 1.46081C13.6487 2.38286 14.1667 3.63344 14.1667 4.93742V5.75686H15.8056C16.0229 5.75686 16.2313 5.8432 16.385 5.99687C16.5387 6.15055 16.625 6.35898 16.625 6.57631V16.4096C16.625 16.627 16.5387 16.8354 16.385 16.9891C16.2313 17.1428 16.0229 17.2291 15.8056 17.2291H2.69444C2.47711 17.2291 2.26869 17.1428 2.11501 16.9891C1.96133 16.8354 1.875 16.627 1.875 16.4096V6.57631C1.875 6.35898 1.96133 6.15055 2.11501 5.99687C2.26869 5.8432 2.47711 5.75686 2.69444 5.75686H4.33333ZM14.9861 7.39575H3.51389V15.5902H14.9861V7.39575ZM8.43056 12.0928C8.11811 11.9124 7.87393 11.634 7.73586 11.3007C7.5978 10.9674 7.57358 10.5978 7.66695 10.2493C7.76033 9.90083 7.96608 9.5929 8.25231 9.37327C8.53853 9.15364 8.88922 9.0346 9.25 9.0346C9.61078 9.0346 9.96147 9.15364 10.2477 9.37327C10.5339 9.5929 10.7397 9.90083 10.833 10.2493C10.9264 10.5978 10.9022 10.9674 10.7641 11.3007C10.6261 11.634 10.3819 11.9124 10.0694 12.0928V13.9513H8.43056V12.0928ZM5.97222 5.75686H12.5278V4.93742C12.5278 4.0681 12.1824 3.23438 11.5677 2.61968C10.953 2.00498 10.1193 1.65964 9.25 1.65964C8.38068 1.65964 7.54696 2.00498 6.93226 2.61968C6.31756 3.23438 5.97222 4.0681 5.97222 4.93742V5.75686Z" fill="#3A4C65"/>
</svg>
