<svg width="16" height="19" viewBox="0 0 16 19" fill="none" xmlns="http://www.w3.org/2000/svg">
<path d="M13.4601 10.6498C13.2287 10.4128 12.7184 10.288 11.9396 10.2769C11.4134 10.2714 10.7776 10.3192 10.1119 10.4165C9.81346 10.2365 9.50443 10.0419 9.26426 9.80678C8.61441 9.17501 8.07227 8.29898 7.73322 7.33479C7.75617 7.2448 7.77383 7.16583 7.79149 7.08502C7.79149 7.08502 8.15704 4.92157 8.06168 4.19062C8.04755 4.08961 8.04049 4.06206 8.014 3.98309L7.98221 3.89861C7.88332 3.65986 7.6873 3.40642 7.3818 3.42111L7.19815 3.4156C6.85732 3.4156 6.57831 3.59742 6.50591 3.86923C6.2834 4.72138 6.51297 5.99411 6.92796 7.64333L6.82201 7.91147C6.52533 8.66445 6.15273 9.42478 5.82427 10.0933L5.78189 10.1796C5.43577 10.883 5.12143 11.4799 4.83889 11.9868L4.54575 12.1484C4.52456 12.1594 4.02127 12.4367 3.90296 12.512C2.90168 13.1346 2.2377 13.8398 2.12821 14.4C2.0929 14.5781 2.11939 14.8077 2.29774 14.9142L2.58205 15.063C2.70567 15.1273 2.83458 15.1603 2.96879 15.1603C3.68222 15.1603 4.51043 14.2365 5.65121 12.1667C6.96858 11.7205 8.46784 11.3495 9.78167 11.1456C10.7829 11.7315 12.0156 12.1392 12.7926 12.1392C12.9303 12.1392 13.0486 12.1263 13.1457 12.0988C13.2958 12.0584 13.4212 11.9702 13.4972 11.849C13.6473 11.6121 13.679 11.287 13.6384 10.9546C13.6172 10.8555 13.5431 10.7324 13.4601 10.6498ZM2.80632 14.5983C2.93524 14.2274 3.45088 13.4964 4.21199 12.8481C4.25967 12.8077 4.37799 12.692 4.48571 12.5855C3.68928 13.906 3.15598 14.433 2.80632 14.5983ZM7.3147 3.79944C7.54426 3.79944 7.67494 4.39999 7.68554 4.96381C7.69613 5.52763 7.56899 5.92249 7.41182 6.2145C7.28114 5.78107 7.21934 5.09788 7.21934 4.65159C7.21934 4.65343 7.20874 3.79944 7.3147 3.79944ZM5.96907 11.4946C6.128 11.197 6.29576 10.883 6.46529 10.5506C6.87852 9.73699 7.14164 9.09971 7.33589 8.5763C7.72262 9.30908 8.20472 9.93167 8.77157 10.4312C8.84221 10.4937 8.91638 10.5561 8.99584 10.6185C7.84447 10.8555 6.84673 11.1438 5.96907 11.4946ZM13.2376 11.4266C13.1669 11.4725 12.9656 11.4982 12.8367 11.4982C12.4199 11.4982 11.9025 11.2999 11.1785 10.9767C11.4575 10.9546 11.7118 10.9454 11.9414 10.9454C12.3599 10.9454 12.4835 10.9436 12.8932 11.052C13.3029 11.1622 13.3082 11.3825 13.2376 11.4266ZM14.4967 3.79576L12.0827 1.28337C11.5564 0.737912 10.5181 0.289795 9.77461 0.289795H1.66201C0.918566 0.289795 0.309326 0.923404 0.309326 1.69659V16.883C0.309326 17.6562 0.918566 18.2898 1.66201 18.2898H14.1011C14.8445 18.2898 15.4538 17.6562 15.4538 16.883V6.19613C15.4538 5.42294 15.0229 4.34122 14.4967 3.79576ZM13.732 4.59099C13.785 4.64608 13.838 4.71404 13.8892 4.78934H11.1273V1.91698C11.2015 1.97024 11.265 2.02533 11.318 2.08043L13.732 4.59099ZM14.3713 16.8812C14.3713 17.0336 14.2477 17.1622 14.1011 17.1622H1.66201C1.51544 17.1622 1.39183 17.0336 1.39183 16.8812V1.69659C1.39183 1.54416 1.51544 1.4156 1.66201 1.4156H9.77461C9.85584 1.4156 9.94767 1.42662 10.0448 1.44498V5.91514H14.343C14.3607 6.01615 14.3713 6.11165 14.3713 6.19613V16.8812Z" fill="#E2415E"/>
</svg>
