<svg width="35" height="35" viewBox="0 0 35 35" fill="none" xmlns="http://www.w3.org/2000/svg">
<rect x="0.963135" y="0.5" width="33.3872" height="33.3872" rx="3.5" fill="white" stroke="#E2415E"/>
<path d="M29.0499 19.9764C28.5772 19.4923 27.5343 19.2371 25.9429 19.2146C24.8676 19.2033 23.5685 19.3009 22.2081 19.4998C21.5982 19.132 20.9667 18.7342 20.4759 18.2538C19.148 16.9628 18.0401 15.1726 17.3473 13.2024C17.3942 13.0185 17.4303 12.8571 17.4664 12.692C17.4664 12.692 18.2134 8.27101 18.0185 6.77734C17.9896 6.57093 17.9752 6.51464 17.9211 6.35326L17.8561 6.18062C17.654 5.69274 17.2535 5.17484 16.6292 5.20486L16.2539 5.1936C15.5574 5.1936 14.9873 5.56514 14.8393 6.12058C14.3846 7.86194 14.8538 10.4627 15.7018 13.8329L15.4853 14.3808C14.879 15.9195 14.1176 17.4732 13.4464 18.8393L13.3598 19.0157C12.6525 20.453 12.0102 21.6727 11.4328 22.7085L10.8338 23.0388C10.7905 23.0613 9.76203 23.628 9.52026 23.7819C7.47419 25.0541 6.11736 26.4952 5.89363 27.6399C5.82145 28.0039 5.87558 28.473 6.24005 28.6907L6.82103 28.9947C7.07363 29.1261 7.33706 29.1936 7.61132 29.1936C9.06919 29.1936 10.7616 27.3059 13.0928 23.0763C15.7848 22.1644 18.8485 21.4063 21.5333 20.9897C23.5793 22.1869 26.0981 23.02 27.6859 23.02C27.9674 23.02 28.2091 22.9938 28.4076 22.9375C28.7143 22.8549 28.9706 22.6748 29.1257 22.4271C29.4325 21.9429 29.4974 21.2787 29.4144 20.5994C29.3711 20.3967 29.2195 20.1453 29.0499 19.9764ZM7.27933 28.0452C7.54275 27.2871 8.59646 25.7934 10.1518 24.4687C10.2492 24.3861 10.491 24.1497 10.7111 23.932C9.08362 26.6304 7.99383 27.7074 7.27933 28.0452ZM16.4921 5.97797C16.9612 5.97797 17.2282 7.20517 17.2499 8.35733C17.2715 9.50948 17.0117 10.3164 16.6905 10.9131C16.4235 10.0274 16.2972 8.63129 16.2972 7.71933C16.2972 7.72308 16.2755 5.97797 16.4921 5.97797ZM13.7423 21.7027C14.0671 21.0948 14.4099 20.453 14.7563 19.7737C15.6007 18.1112 16.1384 16.8089 16.5354 15.7393C17.3256 17.2368 18.3108 18.509 19.4691 19.5298C19.6135 19.6574 19.765 19.785 19.9274 19.9126C17.5746 20.3967 15.5358 20.9859 13.7423 21.7027ZM28.5953 21.5639C28.4509 21.6577 28.0395 21.7103 27.7761 21.7103C26.9245 21.7103 25.8672 21.3049 24.3876 20.6444C24.9578 20.5994 25.4774 20.5806 25.9466 20.5806C26.8018 20.5806 27.0544 20.5769 27.8916 20.7983C28.7288 21.0235 28.7396 21.4738 28.5953 21.5639Z" fill="#E2415E"/>
</svg>
