<svg width="20" height="17" viewBox="0 0 20 17" fill="none" xmlns="http://www.w3.org/2000/svg">
<path opacity="0.1" d="M-3.8147e-05 0V2.83429C1.09234 3.12953 1.92639 3.54286 2.50211 4.07429C3.06306 4.60571 3.5133 5.28476 3.85282 6.11143C4.19234 6.92333 4.36211 7.91976 4.36211 9.10071C2.97449 9.10071 1.94853 9.49929 1.28425 10.2964C0.6052 11.0936 0.265676 11.9424 0.265676 12.8429C0.265676 13.891 0.634726 14.7767 1.37282 15.5C2.11091 16.2233 2.97449 16.585 3.96353 16.585C5.24782 16.585 6.34758 16.0388 7.26282 14.9464C8.17806 13.8393 8.63568 12.3336 8.63568 10.4293C8.63568 8.74643 8.27401 7.17429 7.55068 5.71286C6.82734 4.23667 5.8383 2.98191 4.58353 1.94857C3.32877 0.900478 1.80091 0.250953 -3.8147e-05 0ZM11.1157 0V2.83429C12.2081 3.12953 13.0421 3.54286 13.6178 4.07429C14.1788 4.60571 14.629 5.28476 14.9685 6.11143C15.3081 6.92333 15.4778 7.91976 15.4778 9.10071C14.0607 9.10071 13.02 9.49929 12.3557 10.2964C11.6914 11.0936 11.3592 11.9424 11.3592 12.8429C11.3592 13.891 11.7357 14.7767 12.4885 15.5C13.2266 16.2233 14.0828 16.585 15.0571 16.585C16.3266 16.585 17.4264 16.0388 18.3564 14.9464C19.2716 13.8393 19.7292 12.3336 19.7292 10.4293C19.7292 8.74643 19.3676 7.17429 18.6442 5.71286C17.9209 4.23667 16.9392 2.98191 15.6992 1.94857C14.4445 0.900478 12.9166 0.250953 11.1157 0Z" fill="#3353A5"/>
</svg>
