<svg width="20" height="17" viewBox="0 0 20 17" fill="none" xmlns="http://www.w3.org/2000/svg">
<path opacity="0.1" d="M19.7293 0V2.83429C18.6369 3.12953 17.8029 3.54286 17.2271 4.07429C16.6662 4.60571 16.216 5.28476 15.8764 6.11143C15.5369 6.92333 15.3671 7.91976 15.3671 9.10071C16.7548 9.10071 17.7807 9.49929 18.445 10.2964C19.124 11.0936 19.4636 11.9424 19.4636 12.8429C19.4636 13.891 19.0945 14.7767 18.3564 15.5C17.6183 16.2233 16.7548 16.585 15.7657 16.585C14.4814 16.585 13.3817 16.0388 12.4664 14.9464C11.5512 13.8393 11.0936 12.3336 11.0936 10.4293C11.0936 8.74643 11.4552 7.17429 12.1786 5.71286C12.9019 4.23667 13.891 2.98191 15.1457 1.94857C16.4005 0.900478 17.9283 0.250953 19.7293 0ZM8.61357 0V2.83429C7.52119 3.12953 6.68714 3.54286 6.11143 4.07429C5.55048 4.60571 5.10024 5.28476 4.76071 6.11143C4.42119 6.92333 4.25143 7.91976 4.25143 9.10071C5.66857 9.10071 6.70929 9.49929 7.37357 10.2964C8.03786 11.0936 8.37 11.9424 8.37 12.8429C8.37 13.891 7.99357 14.7767 7.24071 15.5C6.50262 16.2233 5.64643 16.585 4.67214 16.585C3.40262 16.585 2.30286 16.0388 1.37286 14.9464C0.457619 13.8393 0 12.3336 0 10.4293C0 8.74643 0.361667 7.17429 1.085 5.71286C1.80833 4.23667 2.79 2.98191 4.03 1.94857C5.28476 0.900478 6.81262 0.250953 8.61357 0Z" fill="#3353A5"/>
</svg>
