<svg width="24" height="25" viewBox="0 0 24 25" fill="none" xmlns="http://www.w3.org/2000/svg">
<path d="M18.031 16.8729L22.314 21.1549L20.899 22.5699L16.617 18.2869C15.0237 19.5641 13.042 20.2588 11 20.2559C6.032 20.2559 2 16.2239 2 11.2559C2 6.28786 6.032 2.25586 11 2.25586C15.968 2.25586 20 6.28786 20 11.2559C20.0029 13.2979 19.3082 15.2796 18.031 16.8729ZM16.025 16.1309C17.2941 14.8257 18.0029 13.0763 18 11.2559C18 7.38786 14.867 4.25586 11 4.25586C7.132 4.25586 4 7.38786 4 11.2559C4 15.1229 7.132 18.2559 11 18.2559C12.8204 18.2587 14.5699 17.55 15.875 16.2809L16.025 16.1309Z" fill="#B4BABE"/>
</svg>
