<svg width="20" height="12" viewBox="0 0 20 12" fill="none" xmlns="http://www.w3.org/2000/svg">
<path fill-rule="evenodd" clip-rule="evenodd" d="M0 1.21366C0 0.626229 0.476204 0.150024 1.06363 0.150024H18.9364C19.5238 0.150024 20 0.626229 20 1.21366C20 1.80108 19.5238 2.27729 18.9364 2.27729H1.06363C0.476203 2.27729 0 1.80108 0 1.21366ZM0 6C0 5.41257 0.476204 4.93637 1.06363 4.93637H16.0614C16.6488 4.93637 17.125 5.41257 17.125 6C17.125 6.58743 16.6488 7.06363 16.0614 7.06363H1.06363C0.476203 7.06363 0 6.58743 0 6ZM1.06363 9.72271C0.476204 9.72271 0 10.1989 0 10.7863C0 11.3738 0.476204 11.85 1.06363 11.85H11.6864C12.2738 11.85 12.75 11.3738 12.75 10.7863C12.75 10.1989 12.2738 9.72271 11.6864 9.72271H1.06363Z" fill="#32404E"/>
</svg>
