<svg width="16" height="15" viewBox="0 0 16 15" fill="none" xmlns="http://www.w3.org/2000/svg">
<path d="M5.60106 4.36013L7.60604 2.35528V10.6553C7.60604 11.0294 7.90935 11.3327 8.28346 11.3327C8.65758 11.3327 8.96088 11.0294 8.96088 10.6553V2.35533L10.9657 4.36013C11.098 4.4924 11.2713 4.55856 11.4447 4.55856C11.618 4.55856 11.7914 4.49245 11.9237 4.36013C12.1882 4.09557 12.1882 3.66667 11.9237 3.40212L8.76262 0.24101C8.74673 0.225158 8.73006 0.210164 8.71277 0.195939C8.70527 0.189797 8.69737 0.184468 8.68973 0.178732C8.67971 0.17119 8.66991 0.163513 8.65948 0.156513C8.65013 0.150235 8.64042 0.144816 8.6308 0.13908C8.62145 0.133435 8.61228 0.12761 8.60262 0.122416C8.59282 0.117177 8.58279 0.112797 8.57277 0.108055C8.5627 0.103313 8.55285 0.0982998 8.54251 0.0940095C8.53284 0.0900353 8.523 0.0867837 8.5132 0.0832611C8.50218 0.0792869 8.4913 0.0750418 8.47996 0.0716095C8.47021 0.068674 8.46032 0.0665514 8.45052 0.0640676C8.43895 0.0611321 8.42748 0.0578804 8.41574 0.0555321C8.40445 0.0533192 8.39302 0.0520095 8.38164 0.0503385C8.37121 0.048803 8.36087 0.0468611 8.35026 0.0458224C8.32939 0.0437902 8.30848 0.0427966 8.28753 0.0426611C8.28617 0.0426611 8.28486 0.0424805 8.28351 0.0424805C8.2822 0.0424805 8.28084 0.0426611 8.27953 0.0426611C8.25858 0.0427514 8.23762 0.0437902 8.21672 0.0458224C8.20637 0.0468611 8.19626 0.0487579 8.186 0.0502482C8.17435 0.0519192 8.1627 0.053274 8.15119 0.0555772C8.13971 0.0578353 8.12861 0.0609966 8.11736 0.0638417C8.10715 0.0664159 8.09695 0.068674 8.08683 0.0716998C8.07595 0.0749966 8.06533 0.0791063 8.05468 0.082945C8.04452 0.086603 8.03426 0.089945 8.02424 0.0940998C8.0143 0.0982095 8.00482 0.103042 7.99515 0.107603C7.98477 0.11248 7.97429 0.117132 7.96408 0.122551C7.95487 0.127474 7.9462 0.133074 7.93721 0.138403C7.92714 0.144364 7.91702 0.150055 7.90722 0.156603C7.89742 0.163151 7.88826 0.170468 7.87882 0.177468C7.87051 0.183655 7.86206 0.18939 7.85402 0.196029C7.83754 0.209532 7.82178 0.223848 7.80665 0.238797C7.80593 0.239519 7.80516 0.240106 7.80439 0.240829L4.6431 3.40207C4.37859 3.66663 4.37855 4.09553 4.6431 4.36008C4.90761 4.62468 5.33655 4.62459 5.60106 4.36013Z" fill="#26333F"/>
<path d="M15.0576 6.81665C14.6835 6.81665 14.3802 7.11995 14.3802 7.49407V12.6876H2.18663V7.49407C2.18663 7.11995 1.88332 6.81665 1.50921 6.81665C1.13509 6.81665 0.831787 7.11995 0.831787 7.49407V13.365C0.831787 13.7392 1.13509 14.0425 1.50921 14.0425H15.0576C15.4317 14.0425 15.735 13.7392 15.735 13.365V7.49407C15.735 7.11995 15.4317 6.81665 15.0576 6.81665Z" fill="#26333F"/>
</svg>
