<svg width="20" height="20" viewBox="0 0 20 20" fill="none" xmlns="http://www.w3.org/2000/svg">
<path d="M14.1708 0.000743775H14.5803C15.0594 0.129789 15.336 0.428043 15.3579 0.934925C15.3646 1.08963 15.3579 1.24471 15.3579 1.39941C15.3579 1.57643 15.3579 1.75308 15.3579 1.93939C15.4971 1.93939 15.6081 1.93939 15.719 1.93939C16.6318 1.94617 17.5049 2.3134 18.1477 2.96094C18.7904 3.60848 19.1507 4.48375 19.1499 5.39572C19.1551 8.80221 19.1551 12.2087 19.1499 15.6152C19.1507 16.3106 18.9401 16.9898 18.546 17.563C18.1519 18.1363 17.5929 18.5764 16.9429 18.8253C16.7084 18.9168 16.459 18.97 16.2167 19.041H3.78383C3.74992 19.0271 3.71509 19.0156 3.6796 19.0064C2.05253 18.7015 0.855778 17.2894 0.852056 15.6327C0.844363 12.2076 0.844239 8.782 0.851683 5.35593C0.854661 3.84904 1.88056 2.48867 3.33528 2.08926C3.74065 1.9777 4.17803 1.97993 4.60089 1.94051C4.77622 1.92452 4.95415 1.93791 5.13841 1.93791C5.13841 1.72705 5.13841 1.5478 5.13841 1.36855C5.13841 1.20157 5.13581 1.03385 5.14734 0.867242C5.18047 0.388994 5.46226 0.123467 5.90597 0H6.31544C6.93038 0.230942 7.08746 0.459281 7.08784 1.12347C7.08784 1.38826 7.08784 1.65267 7.08784 1.92563H13.4159C13.4159 1.85126 13.4159 1.79175 13.4159 1.73114C13.4159 1.45854 13.4126 1.18595 13.4197 0.912984C13.4327 0.41763 13.7212 0.142061 14.1708 0.000743775ZM17.186 8.66163H2.80781C2.80267 8.69118 2.79907 8.72097 2.79702 8.75089C2.79702 11.0376 2.7892 13.3251 2.80037 15.6115C2.80446 16.4668 3.4704 17.1012 4.33214 17.1016C8.11014 17.1041 11.888 17.1041 15.6658 17.1016C16.555 17.1016 17.1834 16.462 17.1841 15.572C17.1859 13.5579 17.1859 11.5438 17.1841 9.52962C17.1879 9.24364 17.1879 8.95877 17.1879 8.66163H17.186ZM2.83052 6.68468H17.2053C17.2053 6.37378 17.2102 6.07701 17.2053 5.78062C17.2001 5.53369 17.2154 5.27932 17.1629 5.04131C17.0081 4.33472 16.3994 3.88846 15.6337 3.8866C13.2581 3.88486 10.8825 3.88424 8.50682 3.88474C7.12357 3.88474 5.74045 3.88474 4.35745 3.88474C3.6018 3.88474 2.9474 4.34848 2.8469 5.05507C2.76984 5.58798 2.83052 6.13949 2.83052 6.68468Z" fill="#3A4C65"/>
</svg>
